# xmcd CD database file
#
# Track frame offsets:
#	150
#	24216
#	52255
#	68329
#	93216
#	114580
#	140453
#	158199
#	183107
#	210243
#
# Disc length: 3224 seconds
#
# Revision: 1
# Processed by: cddbd v1.5.2PL0 Copyright (c) Steve Scherf et al.
# Submitted via: CDex 1.51
#
DISCID=770c960a
DTITLE=Faris - Mississippi To Sahara
DYEAR=2015
DGENRE=Blues
TTITLE0=Oulhawen Win Tidit (Death Letter)
TTITLE1=Alwaq Semman (Hard Times Killing Floor Blues)
TTITLE2=Assouf Id Nekmam (Trouble So Hard)
TTITLE3=Imiskay Idjoleman (Motherless Children)
TTITLE4=Aghregh Yallah (Jesus Is On The Mainline)
TTITLE5=Inezdjam (Grinnin' In Your Face)
TTITLE6=Oulh Essayaq (Feel Like Going Home)
TTITLE7=Alkoriya (Since I've Laid My Burden Down)
TTITLE8=War Toyed (No More, My Lord)
TTITLE9=Mia Ihan Iman Nagadem (The Soul Of A Man)
EXTD=YEAR: 2015
EXTT0=
EXTT1=
EXTT2=
EXTT3=
EXTT4=
EXTT5=
EXTT6=
EXTT7=
EXTT8=
EXTT9=
PLAYORDER=
